<svg width="52" height="48" viewBox="0 0 52 48" fill="none" xmlns="http://www.w3.org/2000/svg">
<path d="M45.5853 48H32.6119C31.1105 47.9984 29.671 47.4014 28.6092 46.3399C27.5474 45.2784 26.95 43.8391 26.9481 42.3377V24.3758C26.9384 19.143 28.5402 14.0341 31.5358 9.74358C34.443 5.55817 38.532 2.33452 43.2804 0.484463L43.4492 0.416931C44.1289 0.142294 44.8551 0.000754348 45.5882 0C47.0891 0.00233054 48.5278 0.599693 49.589 1.66113C50.6501 2.72256 51.2471 4.16145 51.2491 5.66234C51.2493 6.70508 50.9616 7.72764 50.4176 8.61722C49.8736 9.5068 49.0945 10.2288 48.1661 10.7037L48.0927 10.783L47.7081 10.9298C45.6133 11.6945 43.7248 12.9354 42.1916 14.5547C40.6584 16.174 39.5224 18.1274 38.8732 20.2608L38.863 20.2931C38.8578 20.3247 38.8553 20.3566 38.8556 20.3885C38.8552 20.4743 38.8888 20.5568 38.9491 20.6179C39.0093 20.679 39.0913 20.7137 39.1771 20.7145H45.5853C47.0854 20.716 48.5238 21.312 49.5854 22.372C50.6469 23.4319 51.2452 24.8693 51.2491 26.3695V42.3377C51.2471 43.8391 50.6497 45.2784 49.5879 46.3399C48.5261 47.4014 47.0867 47.9984 45.5853 48ZM45.5853 3.34133C45.2782 3.34198 44.9741 3.40179 44.6897 3.51749L44.4989 3.59383C40.3652 5.20303 36.8059 8.00937 34.2767 11.6535C31.6722 15.384 30.28 19.8262 30.2894 24.3758V42.3377C30.2902 42.9534 30.5351 43.5437 30.9705 43.979C31.4059 44.4144 31.9962 44.6594 32.6119 44.6601H45.5853C46.2012 44.6598 46.7919 44.415 47.2276 43.9796C47.6633 43.5441 47.9084 42.9536 47.9092 42.3377V26.3695C47.908 25.7537 47.6627 25.1636 47.2271 24.7285C46.7914 24.2934 46.201 24.0488 45.5853 24.0484H39.1771C38.2053 24.0461 37.274 23.6584 36.5876 22.9704C35.9012 22.2823 35.5157 21.3501 35.5158 20.3783C35.5165 20.0032 35.5745 19.6304 35.6875 19.2728C36.4759 16.694 37.8416 14.3287 39.6807 12.3566C41.5198 10.3844 43.7841 8.85719 46.3017 7.89087L46.5043 7.80426C46.9227 7.62545 47.2795 7.32772 47.5303 6.948C47.7811 6.56828 47.9149 6.12328 47.9151 5.66822C47.9153 5.36234 47.8551 5.05944 47.7381 4.77685C47.621 4.49426 47.4494 4.23753 47.2329 4.02139C47.0165 3.80524 46.7596 3.63391 46.4768 3.51721C46.1941 3.40052 45.8911 3.34075 45.5853 3.34133ZM19.6342 48H6.66086C5.15959 47.9984 3.72024 47.4014 2.65868 46.3398C1.59712 45.2783 1.00006 43.8389 0.998502 42.3377V24.3758C0.990778 19.1429 2.59465 14.0345 5.5921 9.74505C8.49814 5.55752 12.5874 2.33214 17.3367 0.481527L17.5202 0.412527C18.1937 0.140075 18.9135 1.07793e-05 19.64 0C21.1413 0.00155451 22.5807 0.598619 23.6422 1.66018C24.7038 2.72174 25.3008 4.16107 25.3024 5.66234C25.3038 6.70532 25.0166 7.72835 24.4725 8.61814C23.9283 9.50793 23.1485 10.2298 22.2195 10.7037L22.1475 10.783L21.7614 10.9298C19.6672 11.6959 17.7794 12.9375 16.2463 14.5569C14.7133 16.1763 13.5769 18.1293 12.9266 20.2623V20.2873C12.9199 20.3211 12.9165 20.3555 12.9163 20.39C12.9163 20.4759 12.9502 20.5584 13.0107 20.6194C13.0712 20.6805 13.1533 20.7152 13.2393 20.7159H19.6474C21.1484 20.7175 22.5875 21.3143 23.649 22.3756C24.7106 23.4368 25.3078 24.8758 25.3097 26.3768V42.3377C25.309 43.082 25.1616 43.8189 24.876 44.5063C24.5905 45.1937 24.1723 45.8182 23.6454 46.344C23.1185 46.8698 22.4932 47.2866 21.8052 47.5708C21.1172 47.8549 20.38 48.0008 19.6357 48H19.6342ZM18.5375 3.59677C14.4076 5.20691 10.8517 8.01202 8.32417 11.6535C5.72083 15.3845 4.3292 19.8264 4.33836 24.3758V42.3377C4.33914 42.9534 4.58407 43.5437 5.01946 43.979C5.45484 44.4144 6.04513 44.6594 6.66086 44.6601H19.6342C20.2499 44.6594 20.8402 44.4144 21.2756 43.979C21.7109 43.5437 21.9559 42.9534 21.9567 42.3377V26.3695C21.9559 25.7541 21.7111 25.1642 21.276 24.7291C20.8409 24.294 20.251 24.0492 19.6357 24.0484H13.2261C12.2527 24.0484 11.3192 23.6618 10.6309 22.9735C9.94257 22.2852 9.55589 21.3517 9.55589 20.3783C9.55447 20.0011 9.61041 19.6259 9.72178 19.2655C10.5099 16.6887 11.8739 14.3251 13.7105 12.3534C15.5472 10.3817 17.8083 8.85368 20.3227 7.885L20.54 7.79251C20.9586 7.61453 21.3156 7.31716 21.5662 6.93753C21.8169 6.5579 21.9501 6.11285 21.9493 5.65794C21.9486 5.04235 21.7036 4.45222 21.2681 4.01707C20.8327 3.58192 20.2424 3.33731 19.6268 3.33692C19.3247 3.3366 19.0255 3.39546 18.746 3.51015L18.5375 3.59677Z" fill="url(#paint0_linear_312_281)"/>
<defs>
<linearGradient id="paint0_linear_312_281" x1="0.998474" y1="28.8001" x2="51.2491" y2="28.8001" gradientUnits="userSpaceOnUse">
<stop stop-color="#38AC32"/>
<stop offset="1" stop-color="#7FBB29"/>
</linearGradient>
</defs>
</svg>
