<svg width="40" height="40" viewBox="0 0 40 40" fill="none" xmlns="http://www.w3.org/2000/svg">
<path d="M10 25C9.73734 24.9999 9.47724 25.0516 9.23456 25.1521C8.99188 25.2526 8.77137 25.3999 8.58564 25.5856C8.39991 25.7714 8.25259 25.9919 8.15211 26.2346C8.05162 26.4772 7.99994 26.7373 8.00001 27V30.5646C5.4221 27.6492 3.99941 23.8917 4.00001 20C3.99964 19.4118 4.03486 18.8242 4.10547 18.2403C4.13785 17.9791 4.11838 17.7142 4.04818 17.4606C3.97798 17.207 3.85843 16.9698 3.69638 16.7625C3.53433 16.5552 3.33297 16.3819 3.10383 16.2526C2.87469 16.1232 2.62228 16.0404 2.36106 16.0088C2.09985 15.9772 1.83496 15.9974 1.58159 16.0684C1.32821 16.1393 1.09133 16.2596 0.884515 16.4223C0.677698 16.5849 0.505014 16.7868 0.376359 17.0163C0.247704 17.2458 0.165606 17.4985 0.134771 17.7598C0.0441777 18.5031 -0.000826132 19.2512 1.14788e-05 20C0.00272892 24.7723 1.71792 29.3852 4.83375 33H2.00001C1.46958 33 0.96087 33.2107 0.585797 33.5858C0.210725 33.9609 1.14788e-05 34.4696 1.14788e-05 35C1.14788e-05 35.5304 0.210725 36.0391 0.585797 36.4142C0.96087 36.7893 1.46958 37 2.00001 37H10C10.3128 36.9961 10.6201 36.9175 10.8964 36.7707C11.1727 36.624 11.4099 36.4134 11.5883 36.1564C11.6116 36.1256 11.6414 36.1028 11.6631 36.0704C11.6764 36.0505 11.6768 36.0269 11.6892 36.0067C11.7845 35.8456 11.8559 35.6716 11.9012 35.4901C11.9308 35.3881 11.9518 35.2838 11.9641 35.1783C11.9698 35.1165 12.0001 35.0633 12.0001 35.0001V27.0001C12.0001 26.7374 11.9485 26.4773 11.848 26.2346C11.7475 25.9919 11.6002 25.7714 11.4144 25.5856C11.2287 25.3999 11.0082 25.2526 10.7655 25.1521C10.5228 25.0516 10.2627 24.9999 10 25ZM13 8.00002H9.43507C12.3507 5.42224 16.1083 3.99958 20 4.00002C20.5879 3.99861 21.1753 4.03384 21.7588 4.1055C22.0196 4.13718 22.2842 4.11717 22.5373 4.04661C22.7904 3.97605 23.0271 3.85633 23.234 3.69428C23.4408 3.53223 23.6137 3.33103 23.7428 3.10216C23.8719 2.87329 23.9546 2.62123 23.9863 2.36038C24.018 2.09954 23.998 1.835 23.9274 1.58189C23.8569 1.32877 23.7371 1.09204 23.5751 0.885189C23.413 0.678343 23.2118 0.50544 22.983 0.376353C22.7541 0.247265 22.502 0.164522 22.2412 0.132845C21.4975 0.0431274 20.7491 -0.00122758 20 2.58355e-05C15.2277 0.00262007 10.6148 1.71769 7.00001 4.8334V2.00002C7.00001 1.46959 6.78929 0.960884 6.41422 0.585812C6.03915 0.210739 5.53044 2.58355e-05 5.00001 2.58355e-05C4.46958 2.58355e-05 3.96087 0.210739 3.5858 0.585812C3.21072 0.960884 3.00001 1.46959 3.00001 2.00002V10C3.01259 10.1322 3.03894 10.2627 3.07863 10.3894L3.07911 10.3919C3.12768 10.638 3.22356 10.8723 3.36145 11.0819L3.38429 11.1157C3.51644 11.3079 3.68208 11.4748 3.87329 11.6084C3.89515 11.6244 3.90601 11.6489 3.92871 11.6641C3.95729 11.6831 3.98963 11.6891 4.01881 11.7064C4.13223 11.7746 4.25242 11.8309 4.37745 11.8744C4.54642 11.9332 4.72259 11.9687 4.90113 11.9801C4.93579 11.9819 4.96497 12.0001 5.00001 12.0001H13C13.5304 12.0001 14.0391 11.7894 14.4142 11.4143C14.7893 11.0392 15 10.5305 15 10.0001C15 9.46965 14.7893 8.96094 14.4142 8.58587C14.0391 8.21079 13.5304 8.00008 13 8.00008V8.00002ZM36.9209 29.6082C36.8724 29.362 36.7764 29.1276 36.6384 28.918L36.6158 28.8844C36.4836 28.6921 36.3178 28.5251 36.1264 28.3915C36.1046 28.3756 36.0939 28.351 36.0713 28.3358C36.0497 28.3216 36.024 28.3211 36.0021 28.3076C35.7484 28.1666 35.4704 28.0747 35.1826 28.0368C35.1194 28.0308 35.0648 27.9999 35 27.9999H27C26.4696 27.9999 25.9609 28.2106 25.5858 28.5857C25.2107 28.9608 25 29.4695 25 29.9999C25 30.5303 25.2107 31.039 25.5858 31.4141C25.9609 31.7892 26.4696 31.9999 27 31.9999H30.5648C27.6493 34.5777 23.8917 36.0004 20 35.9999C19.4121 36.0007 18.8247 35.9648 18.2412 35.8925C17.7144 35.8285 17.1837 35.9764 16.766 36.3037C16.3483 36.631 16.0776 37.1108 16.0137 37.6376C15.9497 38.1644 16.0976 38.695 16.4249 39.1128C16.7522 39.5305 17.232 39.8012 17.7588 39.8651C18.5025 39.9548 19.2509 39.9998 20 39.9999C24.7723 39.9973 29.3852 38.2822 33 35.1665V38C33 38.5304 33.2107 39.0391 33.5858 39.4142C33.9609 39.7893 34.4696 40 35 40C35.5304 40 36.0391 39.7893 36.4142 39.4142C36.7893 39.0391 37 38.5304 37 38V30C36.9874 29.8678 36.9611 29.7373 36.9214 29.6106L36.9209 29.6082ZM38 7.00002C38.5304 7.00002 39.0391 6.78931 39.4142 6.41424C39.7893 6.03916 40 5.53045 40 5.00002C40 4.46959 39.7893 3.96088 39.4142 3.58581C39.0391 3.21074 38.5304 3.00002 38 3.00002H30C29.8698 3.01257 29.7412 3.03851 29.6163 3.07742L29.603 3.0801C29.3601 3.12869 29.1288 3.22343 28.9216 3.35916L28.8824 3.38564C28.6911 3.5176 28.525 3.68272 28.3918 3.8732C28.3761 3.8948 28.3518 3.90542 28.3369 3.92776C28.3226 3.94924 28.3221 3.97464 28.3087 3.99648C28.166 4.25167 28.0734 4.53181 28.036 4.8218C28.0303 4.88358 28 4.9368 28 5.00002V13C28 13.5304 28.2107 14.0392 28.5858 14.4142C28.9609 14.7893 29.4696 15 30 15C30.5304 15 31.0391 14.7893 31.4142 14.4142C31.7893 14.0392 32 13.5304 32 13V9.43426C34.5777 12.3502 36.0003 16.108 36 19.9999C36.0004 20.5881 35.9651 21.1758 35.8945 21.7597C35.8311 22.2861 35.9792 22.8162 36.3062 23.2336C36.6331 23.6511 37.1124 23.9217 37.6387 23.9862C37.7197 23.9956 37.8012 24.0002 37.8828 23.9999C38.3711 23.9993 38.8424 23.82 39.2076 23.4958C39.5728 23.1716 39.8067 22.725 39.8652 22.2402C39.9558 21.4969 40.0008 20.7488 40 20C39.9972 15.2277 38.2819 10.6147 35.166 7.00002H38Z" fill="url(#paint0_linear_325_217)"/>
<defs>
<linearGradient id="paint0_linear_325_217" x1="0" y1="24.0001" x2="40" y2="24.0001" gradientUnits="userSpaceOnUse">
<stop stop-color="#38AC32"/>
<stop offset="1" stop-color="#7FBB29"/>
</linearGradient>
</defs>
</svg>
