<svg width="40" height="40" viewBox="0 0 40 40" fill="none" xmlns="http://www.w3.org/2000/svg">
<path d="M37.9922 32.0016H33.993V26.0029C33.993 25.4726 33.7823 24.964 33.4073 24.589C33.0324 24.214 32.5237 24.0033 31.9934 24.0033H21.9955V18.5844L24.255 19.7642C24.5845 19.9365 24.9556 20.0136 25.3265 19.9867C25.6974 19.9598 26.0535 19.83 26.3547 19.6119C26.6559 19.3938 26.8903 19.096 27.0315 18.752C27.1728 18.408 27.2154 18.0314 27.1544 17.6646L26.3546 12.9256L29.7939 9.54626C30.0544 9.29188 30.2405 8.9712 30.3321 8.61881C30.4237 8.26643 30.4174 7.89572 30.3138 7.54667C30.1979 7.19129 29.9847 6.87551 29.6984 6.63517C29.4121 6.39483 29.0642 6.23955 28.6941 6.18695L23.9951 5.4471L21.7955 1.12799C21.6318 0.789916 21.3761 0.504801 21.0578 0.305305C20.7396 0.105809 20.3715 0 19.9959 0C19.6203 0 19.2522 0.105809 18.9339 0.305305C18.6156 0.504801 18.36 0.789916 18.1963 1.12799L15.9967 5.4471L11.2177 6.14696C10.8476 6.19956 10.4997 6.35484 10.2134 6.59518C9.92711 6.83552 9.71392 7.1513 9.59803 7.50668C9.49442 7.85573 9.48809 8.22644 9.57971 8.57882C9.67133 8.9312 9.85742 9.25188 10.1179 9.50627L13.6372 12.9256L12.8374 17.6646C12.7764 18.0314 12.819 18.408 12.9602 18.752C13.1015 19.096 13.3359 19.3938 13.6371 19.6119C13.9383 19.83 14.2944 19.9598 14.6653 19.9867C15.0362 20.0136 15.4072 19.9365 15.7368 19.7642L17.9963 18.5844V24.0033H7.99836C7.46803 24.0033 6.95943 24.214 6.58443 24.589C6.20944 24.964 5.99877 25.4726 5.99877 26.0029V32.0016H1.99959C1.46926 32.0016 0.960662 32.2123 0.585666 32.5873C0.21067 32.9623 0 33.4709 0 34.0012V38.0004C0 38.5307 0.21067 39.0393 0.585666 39.4143C0.960662 39.7893 1.46926 40 1.99959 40C2.52991 40 3.03852 39.7893 3.41351 39.4143C3.78851 39.0393 3.99918 38.5307 3.99918 38.0004V36.0008H11.9975V38.0004C11.9975 38.5307 12.2082 39.0393 12.5832 39.4143C12.9582 39.7893 13.4668 40 13.9971 40C14.5274 40 15.036 39.7893 15.411 39.4143C15.786 39.0393 15.9967 38.5307 15.9967 38.0004V34.0012C15.9967 33.4709 15.786 32.9623 15.411 32.5873C15.036 32.2123 14.5274 32.0016 13.9971 32.0016H9.99794V28.0025H29.9938V32.0016H25.9947C25.4643 32.0016 24.9557 32.2123 24.5807 32.5873C24.2057 32.9623 23.9951 33.4709 23.9951 34.0012V38.0004C23.9951 38.5307 24.2057 39.0393 24.5807 39.4143C24.9557 39.7893 25.4643 40 25.9947 40C26.525 40 27.0336 39.7893 27.4086 39.4143C27.7836 39.0393 27.9942 38.5307 27.9942 38.0004V36.0008H35.9926V38.0004C35.9926 38.5307 36.2033 39.0393 36.5783 39.4143C36.9533 39.7893 37.4619 40 37.9922 40C38.5225 40 39.0311 39.7893 39.4061 39.4143C39.7811 39.0393 39.9918 38.5307 39.9918 38.0004V34.0012C39.9918 33.4709 39.7811 32.9623 39.4061 32.5873C39.0311 32.2123 38.5225 32.0016 37.9922 32.0016ZM19.9959 13.2655C19.6677 13.2671 19.3449 13.3495 19.0561 13.5054L17.4564 14.3453L17.7563 12.5456C17.8088 12.2273 17.7835 11.901 17.6825 11.5946C17.5815 11.2882 17.4079 11.0108 17.1765 10.786L15.8767 9.50627L17.6764 9.24632C17.9983 9.20331 18.305 9.0825 18.5697 8.89437C18.8345 8.70623 19.0495 8.45642 19.1961 8.16654L19.9959 6.52688L20.7957 8.16654C20.9423 8.45642 21.1572 8.70623 21.422 8.89437C21.6868 9.0825 21.9935 9.20331 22.3154 9.24632L24.115 9.50627L22.8153 10.786C22.5839 11.0108 22.4103 11.2882 22.3093 11.5946C22.2083 11.901 22.183 12.2273 22.2354 12.5456L22.5354 14.3453L20.9357 13.5054C20.6469 13.3495 20.3241 13.2671 19.9959 13.2655Z" fill="url(#paint0_linear_325_215)"/>
<defs>
<linearGradient id="paint0_linear_325_215" x1="0" y1="24.0001" x2="39.9918" y2="24.0001" gradientUnits="userSpaceOnUse">
<stop stop-color="#38AC32"/>
<stop offset="1" stop-color="#7FBB29"/>
</linearGradient>
</defs>
</svg>
