<svg width="36" height="40" viewBox="0 0 36 40" fill="none" xmlns="http://www.w3.org/2000/svg">
<path d="M23.16 18.6C24.069 17.4639 24.5692 16.0549 24.58 14.6C24.58 12.8549 23.8868 11.1812 22.6528 9.94723C21.4188 8.71324 19.7451 8.01999 18 8.01999C16.2549 8.01999 14.5812 8.71324 13.3472 9.94723C12.1132 11.1812 11.42 12.8549 11.42 14.6C11.4308 16.0549 11.931 17.4639 12.84 18.6C11.0573 19.6849 9.6586 21.3003 8.84 23.22C8.72543 23.4635 8.6612 23.7277 8.65116 23.9967C8.64112 24.2657 8.68548 24.5339 8.78158 24.7853C8.87768 25.0368 9.02353 25.2662 9.21042 25.4599C9.3973 25.6536 9.62137 25.8076 9.86918 25.9127C10.117 26.0177 10.3835 26.0717 10.6526 26.0713C10.9218 26.0709 11.1881 26.0162 11.4356 25.9104C11.6831 25.8047 11.9068 25.65 12.0931 25.4558C12.2794 25.2615 12.4246 25.0317 12.52 24.78C12.9797 23.7055 13.7431 22.7886 14.7166 22.142C15.6902 21.4953 16.8313 21.1471 18 21.14C19.1721 21.1432 20.3176 21.4896 21.295 22.1365C22.2724 22.7834 23.039 23.7024 23.5 24.78C23.6531 25.1415 23.9092 25.4499 24.2364 25.6669C24.5636 25.8838 24.9474 25.9997 25.34 26C25.6076 25.995 25.872 25.9407 26.12 25.84C26.6077 25.6328 26.9933 25.2405 27.192 24.7493C27.3908 24.258 27.3865 23.708 27.18 23.22C26.3561 21.2975 24.9502 19.6817 23.16 18.6ZM18 17.14C17.4889 17.14 16.9893 16.9881 16.5646 16.7038C16.1399 16.4194 15.8092 16.0152 15.6145 15.5426C15.4199 15.07 15.37 14.5503 15.4711 14.0493C15.5723 13.5482 15.82 13.0886 16.1829 12.7286C16.5457 12.3686 17.0073 12.1244 17.509 12.0271C18.0108 11.9299 18.5302 11.9838 19.0013 12.1822C19.4723 12.3805 19.8739 12.7143 20.1549 13.1412C20.436 13.5681 20.584 14.0689 20.58 14.58C20.5747 15.2608 20.3006 15.9119 19.8173 16.3914C19.334 16.8709 18.6808 17.14 18 17.14ZM30 0H6C4.4087 0 2.88258 0.632141 1.75736 1.75736C0.632141 2.88258 0 4.4087 0 6V28C0 29.5913 0.632141 31.1174 1.75736 32.2426C2.88258 33.3678 4.4087 34 6 34H11.18L16.58 39.42C16.7669 39.6053 16.9885 39.752 17.2322 39.8515C17.4759 39.951 17.7368 40.0015 18 40C18.4767 40 18.9377 39.8298 19.3 39.52L25.74 34H30C31.5913 34 33.1174 33.3678 34.2426 32.2426C35.3679 31.1174 36 29.5913 36 28V6C36 4.4087 35.3679 2.88258 34.2426 1.75736C33.1174 0.632141 31.5913 0 30 0ZM32 28C32 28.5304 31.7893 29.0391 31.4142 29.4142C31.0391 29.7893 30.5304 30 30 30H25C24.5233 29.9999 24.0623 30.1702 23.7 30.48L18.1 35.28L13.42 30.58C13.2331 30.3946 13.0115 30.248 12.7678 30.1484C12.5241 30.0489 12.2632 29.9985 12 30H6C5.46957 30 4.96086 29.7893 4.58579 29.4142C4.21071 29.0391 4 28.5304 4 28V6C4 5.46956 4.21071 4.96086 4.58579 4.58578C4.96086 4.21071 5.46957 4 6 4H30C30.5304 4 31.0391 4.21071 31.4142 4.58578C31.7893 4.96086 32 5.46956 32 6V28Z" fill="url(#paint0_linear_325_214)"/>
<defs>
<linearGradient id="paint0_linear_325_214" x1="0" y1="24.0001" x2="36" y2="24.0001" gradientUnits="userSpaceOnUse">
<stop stop-color="#38AC32"/>
<stop offset="1" stop-color="#7FBB29"/>
</linearGradient>
</defs>
</svg>
