<svg width="36" height="40" viewBox="0 0 36 40" fill="none" xmlns="http://www.w3.org/2000/svg">
<path d="M34.36 16.38C32.9214 16.1197 31.462 15.9925 30 16C29.1601 16 28.3401 16 27.5201 16.16C26.4992 14.7978 25.1962 13.6721 23.7001 12.86C24.9852 11.4565 25.6986 9.62296 25.7001 7.72C25.7001 5.67253 24.8867 3.70892 23.439 2.26114C21.9912 0.813355 20.0276 0 17.9801 0C15.9327 0 13.9691 0.813355 12.5213 2.26114C11.0735 3.70892 10.2602 5.67253 10.2602 7.72C10.2617 9.62296 10.9751 11.4565 12.2602 12.86C10.773 13.6763 9.47204 14.7934 8.4402 16.14C7.66021 16 6.84022 16 6.00022 16C4.53708 16.0057 3.07758 16.1463 1.64025 16.42C1.17434 16.5052 0.753785 16.753 0.453461 17.1192C0.153138 17.4855 -0.00745835 17.9464 0.000266218 18.42V34.92C-0.000210943 35.2138 0.064056 35.5041 0.188497 35.7703C0.312938 36.0365 0.494497 36.272 0.720261 36.46C0.944601 36.6492 1.20782 36.7866 1.49124 36.8627C1.77467 36.9387 2.07135 36.9515 2.36025 36.9C3.55706 36.6393 4.77577 36.492 6.00022 36.46C9.87438 36.4558 13.6645 37.5893 16.9001 39.72L17.1601 39.82C17.4254 39.9351 17.711 39.9963 18.0001 40C18.191 39.9976 18.3802 39.9638 18.5601 39.9H18.7001L18.9601 39.8C22.2266 37.6146 26.07 36.4518 30 36.46C31.222 36.4657 32.4407 36.5862 33.64 36.82C33.9289 36.8715 34.2256 36.8587 34.509 36.7827C34.7924 36.7066 35.0557 36.5692 35.28 36.38C35.5058 36.192 35.6873 35.9565 35.8118 35.6903C35.9362 35.4241 36.0005 35.1338 36 34.84V18.34C35.9983 17.8733 35.8334 17.4218 35.5339 17.0639C35.2344 16.7059 34.8191 16.464 34.36 16.38ZM18.0001 4C18.937 4.06884 19.8132 4.48959 20.4526 5.17777C21.0921 5.86594 21.4475 6.77058 21.4475 7.71C21.4475 8.64942 21.0921 9.55406 20.4526 10.2422C19.8132 10.9304 18.937 11.3512 18.0001 11.42C17.0632 11.3512 16.1871 10.9304 15.5476 10.2422C14.9082 9.55406 14.5527 8.64942 14.5527 7.71C14.5527 6.77058 14.9082 5.86594 15.5476 5.17777C16.1871 4.48959 17.0632 4.06884 18.0001 4ZM16.0001 34.66C12.8655 33.211 9.45353 32.4604 6.00022 32.46C5.34023 32.46 4.68023 32.46 4.00024 32.56V20C5.67735 19.8124 7.37185 19.846 9.0402 20.1H9.2602C11.6434 20.538 13.9271 21.4054 16.0001 22.66V34.66ZM18.0001 19.2C17.1108 18.687 16.1888 18.2327 15.2402 17.84H15.1202C14.4602 17.58 13.8002 17.32 13.1202 17.12C14.5088 16.0147 16.2255 15.4026 18.0001 15.38C19.7701 15.3912 21.4863 15.9891 22.8801 17.08C21.1823 17.6101 19.5463 18.3208 18.0001 19.2ZM32 32.56C27.8934 32.1474 23.751 32.8378 20.0001 34.56V22.56C22.0769 21.3376 24.3621 20.5103 26.7401 20.12H27.1401C28.748 19.8696 30.3817 19.8293 32 20V32.56Z" fill="url(#paint0_linear_325_216)"/>
<defs>
<linearGradient id="paint0_linear_325_216" x1="0" y1="24.0001" x2="36" y2="24.0001" gradientUnits="userSpaceOnUse">
<stop stop-color="#38AC32"/>
<stop offset="1" stop-color="#7FBB29"/>
</linearGradient>
</defs>
</svg>
