<svg width="140" height="78" viewBox="0 0 140 78" fill="none" xmlns="http://www.w3.org/2000/svg">
<g clip-path="url(#clip0_65_52)">
<path d="M28.676 53.2798L26.0718 47.0237H11.6998L9.09286 53.2798H3.25122L16.1547 23.6958H21.9936L34.7278 53.2798H28.676ZM13.717 42.1649H24.0546L18.9281 29.7405L13.717 42.1649Z" fill="#acba97"/>
<path d="M29.2219 23.6957H53.219V28.7247H44.069V53.2796H38.3829V28.7247H29.2219V23.6957Z" fill="#acba97"/>
<path d="M77.276 25.4938C79.5942 26.646 81.529 28.4515 82.8447 30.6902C84.1604 32.9302 84.8192 35.5152 84.821 38.4451C84.8228 41.3751 84.1504 43.9674 82.8037 46.222C81.4552 48.4774 79.4834 50.2896 77.1286 51.4377C74.69 52.6657 71.8748 53.2788 68.6828 53.2769H56.0796V23.6545H68.9803C72.1159 23.6545 74.8811 24.2676 77.276 25.4938ZM74.0604 44.2346C75.2942 42.798 75.9111 40.8965 75.9111 38.5302C75.9111 36.164 75.2523 34.2479 73.9348 32.782C72.6191 31.3179 70.9103 30.5859 68.8084 30.5859H64.8147V46.3895H69.226C71.2187 46.3895 72.8302 45.6712 74.0604 44.2346Z" fill="#acba97"/>
<path d="M81.8813 23.6545H86.6966C88.3372 23.6543 89.9513 24.0712 91.3888 24.8664C92.8263 25.6617 94.0405 26.8095 94.9185 28.2032L96.9276 31.3875L98.9367 28.2251C99.8282 26.8243 101.056 25.6715 102.506 24.8728C103.957 24.0741 105.584 23.6552 107.238 23.6545H112.151L102.526 37.811L113.033 53.2797H108.968C106.987 53.2802 105.037 52.788 103.291 51.8468C101.545 50.9057 100.058 49.5449 98.9613 47.8856L96.9385 44.8275L94.9185 47.9267C93.8475 49.5708 92.3865 50.9209 90.6671 51.8554C88.9477 52.7899 87.0241 53.2794 85.0696 53.2797H81.2207L91.6429 38.1816L81.8813 23.6545Z" fill="#acba97"/>
<path d="M114.114 23.6545H140.003V30.6683H131.42V53.2797H122.636V30.6683H114.114V23.6545Z" fill="#acba97"/>
<path d="M49.1216 14.0521L52.5938 10.5713C45.4986 3.79111 36.0847 0.010498 26.2969 0.010498C16.5091 0.010498 7.09525 3.79111 0 10.5713L3.47495 14.0631C9.66192 8.23578 17.8214 4.99324 26.2983 4.99324C34.7752 4.99324 42.9346 8.23578 49.1216 14.0631V14.0521Z" fill="#acba97"/>
<path d="M26.2983 72.1606C17.8207 72.1755 9.65718 68.9353 3.47495 63.1018L0 66.5716C7.09525 73.3518 16.5091 77.1324 26.2969 77.1324C36.0847 77.1324 45.4986 73.3518 52.5938 66.5716L49.1216 63.0798C42.9425 68.9209 34.7788 72.169 26.2983 72.1606Z" fill="#acba97"/>
</g>
<defs>
<clipPath id="clip0_65_52">
<rect width="140" height="77.1429" fill="white"/>
</clipPath>
</defs>
</svg>
