<svg width="220" height="31" viewBox="0 0 220 31" fill="none" xmlns="http://www.w3.org/2000/svg">
<g clip-path="url(#clip0_65_74)">
<path d="M47.4121 26.1287L48.679 24.678C49.5643 25.6971 50.6621 26.5165 51.8977 27.0807C53.1333 27.6448 54.4778 27.9405 55.8397 27.9475C60.4945 27.9475 61.8339 25.3868 61.8339 23.4636C61.8339 16.8696 48.1321 20.293 48.1321 12.4406C48.1321 8.76446 51.4808 6.43457 55.6332 6.43457C59.021 6.43457 61.6274 7.616 63.3744 9.60519L62.0739 11.0229C61.2723 10.0942 60.2672 9.35651 59.1342 8.86539C58.0012 8.37427 56.7699 8.14249 55.5328 8.18748C52.4854 8.18748 50.186 9.90742 50.186 12.3362C50.186 18.1005 63.8878 14.9353 63.8878 23.3262C63.8878 26.2276 61.9344 29.7004 55.7728 29.7004C52.0054 29.7004 49.159 28.1838 47.4121 26.1287Z" fill="#acba97"/>
<path d="M85.0129 29.2939V18.6061H70.5018V29.2939H68.5483V6.80835H70.5018V16.8532H85.0129V6.80835H86.9663V29.2939H85.0129Z" fill="#acba97"/>
<path d="M92.6481 29.2939V6.80835H94.6015V29.2939H92.6481Z" fill="#acba97"/>
<path d="M100.261 29.2939V6.80835H108.822C113.209 6.80835 115.704 9.84159 115.704 13.4024C115.704 16.9631 113.17 19.9964 108.822 19.9964H102.236V29.3379L100.261 29.2939ZM113.656 13.3584C113.656 10.5285 111.669 8.53927 108.633 8.53927H102.236V18.183H108.633C111.685 18.205 113.656 16.1828 113.656 13.3804V13.3584Z" fill="#acba97"/>
<path d="M118.573 26.1288L119.84 24.6781C120.722 25.699 121.819 26.5198 123.054 27.0842C124.289 27.6485 125.633 27.9431 126.995 27.9476C131.65 27.9476 132.989 25.387 132.989 23.4637C132.989 16.8697 119.287 20.2931 119.287 12.4407C119.287 8.76458 122.636 6.43469 126.788 6.43469C130.182 6.43469 132.783 7.61612 134.529 9.60531L133.229 11.023C132.427 10.0943 131.422 9.35663 130.289 8.86551C129.156 8.3744 127.925 8.14261 126.688 8.1876C123.64 8.1876 121.347 9.90754 121.347 12.3363C121.347 18.1006 135.043 14.9355 135.043 23.3263C135.043 26.2277 133.089 29.7005 126.928 29.7005C123.144 29.7005 120.32 28.1839 118.573 26.1288Z" fill="#acba97"/>
<path d="M156.168 29.2939V18.6061H141.685V29.2939H139.731V6.80835H141.685V16.8532H156.168V6.80835H158.122V29.2939H156.168Z" fill="#acba97"/>
<path d="M180.346 29.2939L178.085 23.7659H165.996L163.764 29.2939H161.503L170.852 6.80835H173.285L182.634 29.2939H180.346ZM172.057 8.86348L166.677 22.013H177.46L172.057 8.86348Z" fill="#acba97"/>
<path d="M185.96 29.2939V6.80835H194.522C198.903 6.80835 201.404 9.84159 201.404 13.4024C201.404 16.9631 198.87 19.9964 194.522 19.9964H187.914V29.3379L185.96 29.2939ZM199.355 13.3584C199.355 10.5285 197.368 8.53927 194.332 8.53927H187.914V18.183H194.316C197.374 18.205 199.35 16.1828 199.35 13.3804L199.355 13.3584Z" fill="#acba97"/>
<path d="M205.511 29.2939V6.80835H220.022V8.56126H207.465V16.8862H219.743V18.6391H207.465V27.541H220V29.2939H205.511Z" fill="#acba97"/>
<path d="M15.6887 0.148466V20.9965C15.6847 21.0733 15.6971 21.1501 15.7252 21.2219C15.7532 21.2937 15.7962 21.3589 15.8515 21.4133C15.9067 21.4677 15.9729 21.51 16.0458 21.5376C16.1187 21.5652 16.1967 21.5774 16.2747 21.5735H31.344C31.3788 21.573 31.4127 21.5631 31.4422 21.5449C31.4716 21.5267 31.4954 21.5008 31.511 21.4702C31.5265 21.4396 31.5332 21.4054 31.5304 21.3712C31.5275 21.3371 31.5152 21.3044 31.4947 21.2768L15.9845 0.060544C15.9787 0.0414213 15.969 0.0236227 15.9562 0.00816475C15.9433 -0.00729319 15.9275 -0.0201099 15.9096 -0.0295497C15.8918 -0.0389895 15.8722 -0.0448712 15.852 -0.0468557C15.8318 -0.0488402 15.8114 -0.0468851 15.792 -0.0411122C15.7725 -0.0353393 15.7545 -0.0258593 15.7388 -0.0132079C15.7231 -0.000556432 15.7101 0.015019 15.7005 0.032623C15.6909 0.0502269 15.6849 0.0695111 15.6829 0.0893874C15.6809 0.109264 15.6829 0.129343 15.6887 0.148466Z" fill="#acba97"/>
<path d="M12.1671 6.91818V20.9964C12.1671 21.0726 12.1518 21.1481 12.122 21.2185C12.0922 21.2888 12.0485 21.3527 11.9935 21.4063C11.9385 21.46 11.8732 21.5023 11.8015 21.531C11.7297 21.5597 11.6529 21.5741 11.5755 21.5734H0.200986C0.165263 21.5736 0.130188 21.564 0.0997958 21.5455C0.0694035 21.527 0.0449261 21.5004 0.0291834 21.4689C0.0134407 21.4373 0.0070712 21.402 0.0108053 21.367C0.0145395 21.332 0.028225 21.2988 0.0502909 21.2711L11.9215 6.83576C11.9397 6.8148 11.9638 6.79969 11.9907 6.79239C12.0177 6.78509 12.0463 6.78594 12.0728 6.79482C12.0992 6.80371 12.1224 6.82022 12.1392 6.84221C12.156 6.86421 12.1657 6.89068 12.1671 6.91818Z" fill="#acba97"/>
<path d="M32.9289 25.8209H0.139307C0.111182 25.8202 0.0834891 25.8278 0.0598629 25.8429C0.0362367 25.8579 0.0177814 25.8796 0.00691741 25.9052C-0.00394657 25.9307 -0.00671339 25.9589 -0.00101548 25.9861C0.00468244 26.0132 0.0185778 26.038 0.0388448 26.0572L4.26382 30.2169C4.28443 30.2376 4.31251 30.2495 4.34195 30.2499H29.7755C29.7928 30.2495 29.8097 30.2453 29.8252 30.2377C29.8406 30.2301 29.8541 30.2193 29.8648 30.2059L33.0461 26.0407C33.062 26.0199 33.0715 25.9951 33.0736 25.9692C33.0758 25.9433 33.0704 25.9173 33.0581 25.8943C33.0458 25.8713 33.0272 25.8522 33.0043 25.8392C32.9814 25.8262 32.9553 25.8199 32.9289 25.8209Z" fill="#acba97"/>
</g>
<defs>
<clipPath id="clip0_65_74">
<rect width="220" height="30.25" fill="white"/>
</clipPath>
</defs>
</svg>
