<svg width="220" height="48" viewBox="0 0 220 48" fill="none" xmlns="http://www.w3.org/2000/svg">
<g clip-path="url(#clip0_65_71)">
<path d="M220 47.7828H212.744L187.418 21.2368H216.338V26.546H199.739L220 47.7828ZM216.338 0H170.784V47.7828H175.85V5.34507H216.338V0Z" fill="#acba97"/>
<path d="M12.3553 36.985H16.8388L11.8762 26.4025L12.0131 26.3666C14.6142 25.5774 16.0859 23.425 16.0516 20.3758C16.0174 15.9993 13.3821 13.4524 8.89857 13.4524H0V36.985H4.03858V27.2276H8.07716L12.3553 36.985ZM4.07281 23.8914V16.8244H8.21406C10.7125 16.8244 12.0473 18.08 12.0473 20.34C12.0473 22.887 10.7125 23.8555 7.46111 23.8555L4.07281 23.8914ZM33.4039 26.4743V22.9587H25.6347V16.9679H36.3815V13.4524H21.5961V36.985H36.7237V33.4695H25.6347V26.4384H33.4039V26.4743ZM53.9048 22.9587H46.3068V16.9679H56.4717V13.4524H42.234V36.985H46.2726V26.4384H53.9048V22.9587ZM61.2975 13.4165V36.9492H65.336V13.3806H61.2975V13.4165ZM96.481 13.4165V36.9492H100.52V13.4165H96.481ZM121.5 13.4165H105.551V16.932H111.506V36.985H115.544V17.0038H121.5V13.4165ZM126.428 13.4165V36.9492H130.467V13.4165H126.428ZM85.837 13.4165V30.1333H85.8027L76.5961 13.4165H72.2153V36.9492H76.0143V19.5508H76.0485L85.5974 36.9492H89.5333V13.4165H85.837ZM149.736 13.4165L144.465 32.5368H144.431L139.16 13.4165H135.156L142.103 37.0209H146.724L153.671 13.4882H149.736V13.4165Z" fill="#acba97"/>
</g>
<defs>
<clipPath id="clip0_65_71">
<rect width="220" height="47.7828" fill="white"/>
</clipPath>
</defs>
</svg>
