<svg width="119" height="120" viewBox="0 0 119 120" fill="none" xmlns="http://www.w3.org/2000/svg">
<g clip-path="url(#clip0_313_368)">
<path d="M53.0078 87.1078V87.4687C53.0101 91.459 51.8218 95.3603 49.5933 98.6792C47.3648 101.998 44.1962 104.585 40.4883 106.114C36.7803 107.643 32.6996 108.044 28.7624 107.267C24.8251 106.489 21.2081 104.569 18.3689 101.748C15.5296 98.9275 13.5958 95.3331 12.8118 91.4196C12.0279 87.5062 12.4291 83.4495 13.9647 79.7627C15.5003 76.076 18.1014 72.9247 21.4389 70.7076C24.7763 68.4905 28.7003 67.3071 32.7145 67.3071H45.1922V55.0049H32.7145C26.2462 55.0004 19.922 56.9035 14.5422 60.4731C9.16231 64.0428 4.96861 69.1187 2.49178 75.0584C0.0149355 80.9981 -0.633712 87.5348 0.627905 93.8411C1.88952 100.147 5.00469 105.94 9.57922 110.486C14.1537 115.032 19.982 118.126 26.3264 119.378C32.6709 120.63 39.2463 119.983 45.2207 117.519C51.1951 115.055 56.2998 110.884 59.8889 105.535C63.4781 100.186 65.3903 93.8985 65.3835 87.4687V85.1007L53.0078 81.4134V87.1078Z" fill="white"/>
<path d="M52.9965 46.604H52.9851V81.4132L65.3835 85.1005V73.3959H65.3948V37.3013L52.9965 33.614V46.604Z" fill="white"/>
<path d="M85.6766 0C77.0101 0.00597848 68.7007 3.43247 62.5747 9.5263C56.4487 15.6201 53.0075 23.8826 53.0075 32.4976V33.6252L65.4172 37.3237V32.5089C65.4195 28.5218 66.6109 24.6248 68.8409 21.3108C71.0709 17.9967 74.2393 15.4143 77.9455 13.89C81.6518 12.3658 85.7295 11.9681 89.6631 12.7473C93.5966 13.5266 97.2095 15.4476 100.045 18.2677C102.88 21.0878 104.811 24.6803 105.592 28.591C106.374 32.5016 105.972 36.5549 104.436 40.2383C102.901 43.9216 100.301 47.0698 96.9662 49.2847C93.6311 51.4996 89.7102 52.6817 85.6993 52.6817H73.2215V65.0177H85.6993C90.0429 65.0982 94.3591 64.3172 98.3956 62.7204C102.432 61.1237 106.108 58.7432 109.208 55.7181C112.309 52.693 114.772 49.0839 116.453 45.1018C118.134 41.1197 119 36.8444 119 32.5258C119 28.2072 118.134 23.9319 116.453 19.9498C114.772 15.9677 112.309 12.3586 109.208 9.33349C106.108 6.30836 102.432 3.92787 98.3956 2.33112C94.3591 0.734373 90.0429 -0.0465967 85.6993 0.033844L85.6766 0Z" fill="white"/>
</g>
<defs>
<clipPath id="clip0_313_368">
<rect width="119" height="120" fill="white"/>
</clipPath>
</defs>
</svg>
