<svg width="54" height="60" viewBox="0 0 54 60" fill="none" xmlns="http://www.w3.org/2000/svg">
<path d="M34.74 27.9C36.1034 26.1958 36.8537 24.0824 36.87 21.9C36.87 19.2823 35.8301 16.7718 33.9791 14.9208C32.1281 13.0699 29.6177 12.03 27 12.03C24.3823 12.03 21.8718 13.0699 20.0208 14.9208C18.1699 16.7718 17.13 19.2823 17.13 21.9C17.1462 24.0824 17.8965 26.1958 19.26 27.9C16.5859 29.5273 14.4879 31.9505 13.26 34.83C13.0881 35.1953 12.9918 35.5916 12.9767 35.9951C12.9617 36.3985 13.0282 36.8009 13.1724 37.178C13.3165 37.5551 13.5353 37.8993 13.8156 38.1899C14.0959 38.4804 14.432 38.7114 14.8038 38.869C15.1755 39.0266 15.5752 39.1075 15.9789 39.1069C16.3827 39.1064 16.7822 39.0243 17.1534 38.8656C17.5247 38.707 17.8601 38.475 18.1396 38.1837C18.4191 37.8923 18.6369 37.5475 18.78 37.17C19.4695 35.5582 20.6147 34.1829 22.0749 33.2129C23.5352 32.243 25.247 31.7206 27 31.71C28.7581 31.7148 30.4763 32.2344 31.9425 33.2047C33.4086 34.175 34.5584 35.5535 35.25 37.17C35.4796 37.7122 35.8638 38.1749 36.3546 38.5003C36.8454 38.8257 37.4211 38.9995 38.01 39C38.4114 38.9925 38.808 38.9111 39.18 38.76C39.9116 38.4492 40.4899 37.8608 40.788 37.1239C41.0861 36.3871 41.0796 35.562 40.77 34.83C39.5342 31.9462 37.4252 29.5225 34.74 27.9ZM27 25.71C26.2333 25.71 25.4839 25.4822 24.8468 25.0556C24.2098 24.629 23.7138 24.0229 23.4218 23.314C23.1298 22.6051 23.0549 21.8254 23.2067 21.0739C23.3585 20.3224 23.73 19.6329 24.2743 19.0929C24.8185 18.5528 25.5109 18.1866 26.2635 18.0407C27.0162 17.8948 27.7953 17.9757 28.5019 18.2733C29.2085 18.5708 29.8108 19.0715 30.2324 19.7118C30.654 20.3522 30.8759 21.1033 30.87 21.87C30.8621 22.8912 30.4508 23.8678 29.7259 24.5871C29.001 25.3064 28.0212 25.71 27 25.71ZM45 0H8.99999C6.61305 0 4.32386 0.948211 2.63604 2.63604C0.948211 4.32386 0 6.61305 0 8.99999V42C0 44.3869 0.948211 46.6761 2.63604 48.3639C4.32386 50.0517 6.61305 51 8.99999 51H16.77L24.87 59.1299C25.1503 59.408 25.4827 59.628 25.8483 59.7773C26.2138 59.9266 26.6052 60.0022 27 59.9999C27.715 60 28.4065 59.7447 28.95 59.2799L38.61 51H45C47.3869 51 49.6761 50.0517 51.3639 48.3639C53.0517 46.6761 54 44.3869 54 42V8.99999C54 6.61305 53.0517 4.32386 51.3639 2.63604C49.6761 0.948211 47.3869 0 45 0ZM48 42C48 42.7956 47.6839 43.5587 47.1213 44.1213C46.5587 44.6839 45.7956 45 45 45H37.5C36.7849 44.9999 36.0934 45.2552 35.55 45.72L27.15 52.92L20.13 45.87C19.8497 45.5919 19.5172 45.3719 19.1517 45.2226C18.7862 45.0734 18.3948 44.9977 18 45H8.99999C8.20434 45 7.44128 44.6839 6.87867 44.1213C6.31607 43.5587 5.99999 42.7956 5.99999 42V8.99999C5.99999 8.20434 6.31607 7.44128 6.87867 6.87867C7.44128 6.31607 8.20434 5.99999 8.99999 5.99999H45C45.7956 5.99999 46.5587 6.31607 47.1213 6.87867C47.6839 7.44128 48 8.20434 48 8.99999V42Z" fill="white"/>
</svg>
