<svg width="49" height="60" viewBox="0 0 49 60" fill="none" xmlns="http://www.w3.org/2000/svg">
<path d="M24.021 26.3706C25.2087 26.3706 26.3698 26.0184 27.3573 25.3585C28.3449 24.6987 29.1146 23.7608 29.5691 22.6634C30.0237 21.5661 30.1426 20.3587 29.9109 19.1938C29.6792 18.0289 29.1072 16.9588 28.2674 16.119C27.4275 15.2791 26.3575 14.7072 25.1926 14.4755C24.0277 14.2438 22.8202 14.3627 21.7229 14.8172C20.6256 15.2717 19.6877 16.0414 19.0278 17.029C18.368 18.0166 18.0158 19.1776 18.0158 20.3653C18.0158 21.958 18.6485 23.4855 19.7747 24.6117C20.9009 25.7379 22.4283 26.3706 24.021 26.3706ZM21.8891 47.1187C22.1683 47.4002 22.5004 47.6236 22.8663 47.776C23.2322 47.9284 23.6246 48.0069 24.021 48.0069C24.4174 48.0069 24.8098 47.9284 25.1757 47.776C25.5416 47.6236 25.8737 47.4002 26.1529 47.1187L38.4336 34.808C41.286 31.9571 43.2288 28.3244 44.0163 24.3692C44.8038 20.4141 44.4007 16.3142 42.8579 12.5882C41.3151 8.8622 38.702 5.67742 35.349 3.43671C31.996 1.19599 28.0538 0 24.021 0C19.9882 0 16.046 1.19599 12.693 3.43671C9.34004 5.67742 6.72688 8.8622 5.18409 12.5882C3.6413 16.3142 3.23817 20.4141 4.0257 24.3692C4.81324 28.3244 6.75605 31.9571 9.6084 34.808L21.8891 47.1187ZM9.69848 18.9841C9.90364 16.8433 10.5843 14.7753 11.6908 12.9312C12.7973 11.087 14.3017 9.51327 16.0941 8.32481C18.4487 6.77875 21.2041 5.95501 24.021 5.95501C26.8379 5.95501 29.5933 6.77875 31.9479 8.32481C33.7284 9.5092 35.2242 11.0734 36.328 12.905C37.4317 14.7365 38.1158 16.7899 38.3311 18.9174C38.5465 21.045 38.2877 23.1938 37.5733 25.2093C36.859 27.2249 35.7069 29.0571 34.1999 30.5743L24.021 40.7532L13.8421 30.5743C12.3334 29.0719 11.1786 27.252 10.4618 25.247C9.74497 23.2421 9.48422 21.1025 9.69848 18.9841ZM45.0394 53.9948H3.00263C2.20628 53.9948 1.44255 54.3111 0.879449 54.8742C0.316348 55.4373 0 56.201 0 56.9974C0 57.7937 0.316348 58.5575 0.879449 59.1206C1.44255 59.6837 2.20628 60 3.00263 60H45.0394C45.8357 60 46.5995 59.6837 47.1626 59.1206C47.7257 58.5575 48.042 57.7937 48.042 56.9974C48.042 56.201 47.7257 55.4373 47.1626 54.8742C46.5995 54.3111 45.8357 53.9948 45.0394 53.9948Z" fill="white"/>
</svg>
