<svg width="60" height="60" viewBox="0 0 60 60" fill="none" xmlns="http://www.w3.org/2000/svg">
<path d="M36 18H39C39.7957 18 40.5587 17.6839 41.1213 17.1213C41.6839 16.5587 42 15.7956 42 15C42 14.2044 41.6839 13.4413 41.1213 12.8787C40.5587 12.3161 39.7957 12 39 12H36C35.2043 12 34.4413 12.3161 33.8787 12.8787C33.3161 13.4413 33 14.2044 33 15C33 15.7956 33.3161 16.5587 33.8787 17.1213C34.4413 17.6839 35.2043 18 36 18ZM36 30H39C39.7957 30 40.5587 29.6839 41.1213 29.1213C41.6839 28.5587 42 27.7956 42 27C42 26.2044 41.6839 25.4413 41.1213 24.8787C40.5587 24.3161 39.7957 24 39 24H36C35.2043 24 34.4413 24.3161 33.8787 24.8787C33.3161 25.4413 33 26.2044 33 27C33 27.7956 33.3161 28.5587 33.8787 29.1213C34.4413 29.6839 35.2043 30 36 30ZM21 18H24C24.7956 18 25.5587 17.6839 26.1213 17.1213C26.6839 16.5587 27 15.7956 27 15C27 14.2044 26.6839 13.4413 26.1213 12.8787C25.5587 12.3161 24.7956 12 24 12H21C20.2044 12 19.4413 12.3161 18.8787 12.8787C18.3161 13.4413 18 14.2044 18 15C18 15.7956 18.3161 16.5587 18.8787 17.1213C19.4413 17.6839 20.2044 18 21 18ZM21 30H24C24.7956 30 25.5587 29.6839 26.1213 29.1213C26.6839 28.5587 27 27.7956 27 27C27 26.2044 26.6839 25.4413 26.1213 24.8787C25.5587 24.3161 24.7956 24 24 24H21C20.2044 24 19.4413 24.3161 18.8787 24.8787C18.3161 25.4413 18 26.2044 18 27C18 27.7956 18.3161 28.5587 18.8787 29.1213C19.4413 29.6839 20.2044 30 21 30ZM57 54H54V3C54 2.20435 53.6839 1.44129 53.1213 0.87868C52.5587 0.31607 51.7957 0 51 0H9C8.20435 0 7.44129 0.31607 6.87868 0.87868C6.31607 1.44129 6 2.20435 6 3V54H3C2.20435 54 1.44129 54.3161 0.87868 54.8787C0.31607 55.4413 0 56.2043 0 57C0 57.7957 0.31607 58.5587 0.87868 59.1213C1.44129 59.6839 2.20435 60 3 60H57C57.7957 60 58.5587 59.6839 59.1213 59.1213C59.6839 58.5587 60 57.7957 60 57C60 56.2043 59.6839 55.4413 59.1213 54.8787C58.5587 54.3161 57.7957 54 57 54ZM33 54H27V42H33V54ZM48 54H39V39C39 38.2043 38.6839 37.4413 38.1213 36.8787C37.5587 36.3161 36.7957 36 36 36H24C23.2044 36 22.4413 36.3161 21.8787 36.8787C21.3161 37.4413 21 38.2043 21 39V54H12V6H48V54Z" fill="white"/>
</svg>
