<svg width="46" height="50" viewBox="0 0 46 50" fill="none" xmlns="http://www.w3.org/2000/svg">
<path d="M22.6218 22.5C22.1274 22.5 21.644 22.6466 21.2329 22.9213C20.8218 23.196 20.5014 23.5865 20.3121 24.0433C20.1229 24.5001 20.0734 25.0028 20.1699 25.4877C20.2663 25.9727 20.5044 26.4181 20.8541 26.7678C21.2037 27.1174 21.6492 27.3555 22.1341 27.452C22.6191 27.5484 23.1217 27.4989 23.5786 27.3097C24.0354 27.1205 24.4258 26.8001 24.7005 26.3889C24.9752 25.9778 25.1218 25.4945 25.1218 25C25.1218 24.337 24.8585 23.7011 24.3896 23.2322C23.9208 22.7634 23.2849 22.5 22.6218 22.5ZM41.6719 25L41.9468 24.65C45.3218 20 46.1218 15.725 44.2718 12.5C42.4218 9.275 38.2719 7.85 32.6218 8.425H32.1718C29.8968 3.25 26.5218 0 22.6218 0C18.7218 0 15.3468 3.25 13.0968 8.5L12.6218 8.425C6.97185 7.85 2.82185 9.275 0.971846 12.5C-0.878154 15.725 -0.0781541 20 3.29685 24.65L3.57185 25L3.29685 25.35C-0.0781541 30 -0.878154 34.275 0.971846 37.5C2.62185 40.25 5.79685 41.7 10.1218 41.7C10.8968 41.7 11.6968 41.7 12.6218 41.575H13.0718C15.3468 46.75 18.7218 50 22.6218 50C26.5218 50 29.8968 46.75 32.1469 41.5H32.5968C33.4468 41.5 34.2468 41.625 35.0968 41.625C39.5218 41.625 42.7719 40.175 44.3469 37.425C46.1968 34.2 45.3969 29.925 42.0219 25.275L41.6719 25ZM5.29685 15C5.92185 13.9 7.79685 13.3 10.2968 13.3H11.5218C11.1301 14.8379 10.8378 16.3995 10.6468 17.975C9.37321 18.9384 8.16241 19.9822 7.02185 21.1C5.12185 18.6 4.57185 16.25 5.29685 15ZM5.29685 35C4.57185 33.75 5.29685 31.4 6.97185 28.825C8.11241 29.9428 9.32321 30.9866 10.5968 31.95C10.7878 33.5337 11.0801 35.1036 11.4718 36.65C8.37185 36.85 6.02185 36.25 5.29685 35ZM22.6218 5C24.0218 5 25.6968 6.65 27.1218 9.575C25.5945 10.0183 24.0923 10.5441 22.6218 11.15C21.1514 10.5441 19.6492 10.0183 18.1218 9.575C19.5468 6.65 21.2218 5 22.6218 5ZM22.6218 45C21.2218 45 19.5468 43.35 18.1218 40.425C19.6492 39.9817 21.1514 39.4559 22.6218 38.85C24.0923 39.4559 25.5945 39.9817 27.1218 40.425C25.6968 43.35 24.0218 45 22.6218 45ZM29.9468 29.225C28.7969 30.025 27.6218 30.775 26.3718 31.5C25.1218 32.225 23.8718 32.875 22.6218 33.45C21.3718 32.8667 20.1218 32.2167 18.8718 31.5C17.6218 30.775 16.3718 30.025 15.2968 29.225C15.1218 27.875 15.1218 26.475 15.1218 25C15.1218 23.525 15.1218 22.125 15.2968 20.775C16.4468 19.975 17.6218 19.225 18.8718 18.5C20.1218 17.775 21.3718 17.125 22.6218 16.55C23.8718 17.1333 25.1218 17.7833 26.3718 18.5C27.6218 19.225 28.8719 19.975 29.9468 20.775C29.9468 22.125 30.1218 23.525 30.1218 25C30.1218 26.475 30.1219 27.875 29.9468 29.225ZM39.9468 35C39.2218 36.25 36.8718 36.875 33.7718 36.65C34.1636 35.1036 34.4558 33.5337 34.6468 31.95C35.9205 30.9866 37.1313 29.9428 38.2718 28.825C40.1218 31.4 40.6718 33.75 39.9468 35ZM38.2718 21.175C37.1313 20.0572 35.9205 19.0134 34.6468 18.05C34.4559 16.4745 34.1636 14.9129 33.7718 13.375H34.9968C37.4968 13.375 39.3218 13.975 39.9968 15.075C40.6719 16.175 40.1218 18.6 38.2718 21.175Z" fill="white"/>
</svg>
