<svg width="65" height="50" viewBox="0 0 65 50" fill="none" xmlns="http://www.w3.org/2000/svg">
<path d="M33.2353 25.6471C34.8046 24.2886 36.0634 22.6085 36.9261 20.7207C37.7888 18.8328 38.2353 16.7815 38.2353 14.7059C38.2353 10.8056 36.6859 7.06514 33.9281 4.30725C31.1702 1.54937 27.4297 5.26209e-07 23.5294 5.26209e-07C19.6292 5.26209e-07 15.8887 1.54937 13.1308 4.30725C10.3729 7.06514 8.82353 10.8056 8.82353 14.7059C8.82351 16.7815 9.27001 18.8328 10.1327 20.7207C10.9954 22.6085 12.2542 24.2886 13.8235 25.6471C9.7063 27.5114 6.21314 30.5221 3.76171 34.3192C1.31028 38.1164 0.00432899 42.5391 0 47.0588C0 47.8389 0.309873 48.587 0.861451 49.1385C1.41303 49.6901 2.16113 50 2.94118 50C3.72123 50 4.46933 49.6901 5.0209 49.1385C5.57248 48.587 5.88235 47.8389 5.88235 47.0588C5.88235 42.3785 7.74159 37.8899 11.0511 34.5805C14.3605 31.271 18.8491 29.4118 23.5294 29.4118C28.2097 29.4118 32.6983 31.271 36.0078 34.5805C39.3172 37.8899 41.1765 42.3785 41.1765 47.0588C41.1765 47.8389 41.4864 48.587 42.0379 49.1385C42.5895 49.6901 43.3376 50 44.1177 50C44.8977 50 45.6458 49.6901 46.1974 49.1385C46.749 48.587 47.0588 47.8389 47.0588 47.0588C47.0545 42.5391 45.7486 38.1164 43.2971 34.3192C40.8457 30.5221 37.3525 27.5114 33.2353 25.6471ZM23.5294 23.5294C21.7843 23.5294 20.0783 23.0119 18.6273 22.0424C17.1763 21.0728 16.0454 19.6948 15.3775 18.0825C14.7097 16.4702 14.535 14.6961 14.8754 12.9845C15.2159 11.2729 16.0562 9.7007 17.2902 8.46671C18.5242 7.23271 20.0964 6.39235 21.808 6.0519C23.5196 5.71144 25.2937 5.88617 26.906 6.55401C28.5183 7.22184 29.8964 8.35277 30.8659 9.80379C31.8355 11.2548 32.353 12.9608 32.353 14.7059C32.353 17.046 31.4233 19.2903 29.7686 20.9451C28.1139 22.5998 25.8696 23.5294 23.5294 23.5294ZM52.1765 24.4706C54.0587 22.351 55.2883 19.7325 55.7171 16.9304C56.1459 14.1283 55.7557 11.262 54.5934 8.67647C53.4312 6.09096 51.5465 3.89646 49.1661 2.35713C46.7857 0.817794 44.0112 -0.000757647 41.1765 5.26209e-07C40.3964 5.26209e-07 39.6483 0.309873 39.0968 0.861451C38.5452 1.41303 38.2353 2.16113 38.2353 2.94118C38.2353 3.72123 38.5452 4.46932 39.0968 5.0209C39.6483 5.57248 40.3964 5.88235 41.1765 5.88235C43.5166 5.88235 45.7609 6.81197 47.4157 8.46671C49.0704 10.1214 50 12.3657 50 14.7059C49.9959 16.2507 49.5862 17.7674 48.812 19.1042C48.0377 20.441 46.9261 21.5511 45.5882 22.3235C45.1522 22.5751 44.788 22.9343 44.5305 23.3669C44.273 23.7995 44.1309 24.2909 44.1177 24.7941C44.1054 25.2934 44.2204 25.7876 44.452 26.2302C44.6835 26.6727 45.024 27.049 45.4412 27.3235L46.5882 28.0882L46.9706 28.2941C50.5159 29.9756 53.5068 32.6353 55.5911 35.9597C57.6754 39.2842 58.7663 43.1351 58.7353 47.0588C58.7353 47.8389 59.0452 48.587 59.5968 49.1385C60.1483 49.6901 60.8964 50 61.6765 50C62.4565 50 63.2046 49.6901 63.7562 49.1385C64.3078 48.587 64.6177 47.8389 64.6177 47.0588C64.6417 42.5454 63.5113 38.1007 61.3337 34.1472C59.1562 30.1937 56.004 26.8627 52.1765 24.4706Z" fill="white"/>
</svg>
