<svg width="220" height="25" viewBox="0 0 220 25" fill="none" xmlns="http://www.w3.org/2000/svg">
<g clip-path="url(#clip0_65_60)">
<path d="M2.43582 24.3525H0V0H3.4227L9.05875 17.6041V0H11.4604V24.3525H8.64233L2.41301 4.66059L2.43582 24.3525Z" fill="#acba97"/>
<path d="M31.2779 10.7815V13.2174H25.351V21.8825H32.6299V24.3525H22.6128V0H32.6299V2.47006H25.351V10.7815H31.2779Z" fill="#acba97"/>
<path d="M49.5378 13.8449L45.4705 24.3526H42.8921L47.798 11.8027L43.2344 0.0114746H46.0524L49.8117 9.75476L53.5994 0.0114746H56.138L51.5743 11.8027L56.4403 24.3526H53.588L49.5378 13.8449Z" fill="#acba97"/>
<path d="M70.5134 24.3525V2.47006H66.0239V0H77.7125V2.47006H73.2287V24.3525H70.5134Z" fill="#acba97"/>
<path d="M106.663 24.3183H104.073L100.04 4.92299V24.3183H97.6724V0H101.466L105.459 19.4467L109.321 0H113.109V24.3525H110.536V4.76898L106.663 24.3183Z" fill="#acba97"/>
<path d="M134.033 10.7815V13.2174H128.083V21.8825H135.391V24.3525H125.374V0H135.391V2.47006H128.083V10.7815H134.033Z" fill="#acba97"/>
<path d="M151.945 0C155.739 0 157.479 2.28181 157.479 6.05249V18.3343C157.479 22.0536 155.739 24.3525 151.945 24.3525H146.241V0H151.945ZM151.911 21.8825C153.862 21.8825 154.797 20.6617 154.797 18.4598V5.91559C154.797 3.69083 153.862 2.49288 151.877 2.49288H148.956V21.8882L151.911 21.8825Z" fill="#acba97"/>
<path d="M171.649 0V24.3525H168.939V0H171.649Z" fill="#acba97"/>
<path d="M184.786 18.6138C184.786 20.8043 185.653 22.1221 187.638 22.1221C189.624 22.1221 190.456 20.8043 190.456 18.6138V0H192.995V18.4712C192.995 22.1563 191.284 24.6264 187.536 24.6264C183.788 24.6264 182.105 22.1563 182.105 18.4712V0H184.786V18.6138Z" fill="#acba97"/>
<path d="M213.566 24.3183H210.959L206.925 4.92299V24.3183H204.558V0H208.352L212.345 19.4467L216.207 0H220V24.3525H217.422V4.76898L213.566 24.3183Z" fill="#acba97"/>
</g>
<defs>
<clipPath id="clip0_65_60">
<rect width="220" height="24.6264" fill="white"/>
</clipPath>
</defs>
</svg>
